name Walk2.mot
datacolumns 19
datarows 22
range 3.47500000 3.58000000
endheader

                time	   L_ground_force_vx	   L_ground_force_vy	   L_ground_force_vz	   L_ground_force_px	   L_ground_force_py	   L_ground_force_pz	   R_ground_force_vx	   R_ground_force_vy	   R_ground_force_vz	   R_ground_force_px	   R_ground_force_py	   R_ground_force_pz	   L_ground_torque_x	   L_ground_torque_y	   L_ground_torque_z	   R_ground_torque_x	   R_ground_torque_y	   R_ground_torque_z	
          3.47500000	          0.10289430	          0.30787096	          0.00536289	         -0.00008243	          0.00000000	         -0.00000174	         -5.07412025	        889.48252592	        -56.75630065	          0.17316120	          0.00000000	          0.13598302	          0.00000000	         -0.00019280	          0.00000000	          0.00000000	         12.80857647	          0.00000000	
          3.48000000	          0.08790514	          0.27052482	          0.00655630	         -0.00023072	          0.00000000	         -0.00004023	         -3.88769312	        889.05318060	        -55.75087485	          0.17382849	          0.00000000	          0.13599338	          0.00000000	         -0.00003356	          0.00000000	          0.00000000	         12.51379789	          0.00000000	
          3.48500000	          0.07134065	          0.22518022	          0.00680308	         -0.00030758	          0.00000000	         -0.00006174	         -2.69202555	        888.99724982	        -54.79729049	          0.17450836	          0.00000000	          0.13601224	          0.00000000	          0.00007121	          0.00000000	          0.00000000	         12.22689771	          0.00000000	
          3.49000000	          0.05507598	          0.17829258	          0.00642330	         -0.00033253	          0.00000000	         -0.00007065	         -1.46314638	        889.34325567	        -53.95255924	          0.17519926	          0.00000000	          0.13604430	          0.00000000	          0.00013277	          0.00000000	          0.00000000	         11.94788091	          0.00000000	
          3.49500000	          0.04028992	          0.13412365	          0.00567175	         -0.00032224	          0.00000000	         -0.00007077	         -0.17823430	        890.10506290	        -53.26336880	          0.17589923	          0.00000000	          0.13609312	          0.00000000	          0.00016174	          0.00000000	          0.00000000	         11.67569705	          0.00000000	
          3.50000000	          0.02762146	          0.09519141	          0.00474123	         -0.00029015	          0.00000000	         -0.00006526	          1.18234085	        891.28253934	        -52.76399529	          0.17660507	          0.00000000	          0.13616088	          0.00000000	          0.00016753	          0.00000000	          0.00000000	         11.40846523	          0.00000000	
          3.50500000	          0.01731290	          0.06269644	          0.00376953	         -0.00024663	          0.00000000	         -0.00005656	          2.63341554	        892.86267919	        -52.47602521	          0.17731366	          0.00000000	          0.13624839	          0.00000000	          0.00015800	          0.00000000	          0.00000000	         11.14413494	          0.00000000	
          3.51000000	          0.00933298	          0.03689951	          0.00284827	         -0.00019921	          0.00000000	         -0.00004651	          4.18363162	        894.82104861	        -52.40787480	          0.17802330	          0.00000000	          0.13635496	          0.00000000	          0.00013938	          0.00000000	          0.00000000	         10.88037234	          0.00000000	
          3.51500000	          0.00347748	          0.01743813	          0.00203222	         -0.00015305	          0.00000000	         -0.00003638	          5.83454132	        897.12254094	        -52.55473715	          0.17873339	          0.00000000	          0.13647928	          0.00000000	          0.00011642	          0.00000000	          0.00000000	         10.61464302	          0.00000000	
          3.52000000	         -0.00055256	          0.00357878	          0.00134818	         -0.00011134	          0.00000000	         -0.00002701	          7.57935594	        899.72466533	        -52.89963782	          0.17944550	          0.00000000	          0.13662020	          0.00000000	          0.00009249	          0.00000000	          0.00000000	         10.34447619	          0.00000000	
          3.52500000	         -0.00309325	         -0.00559199	          0.00080290	         -0.00007579	          0.00000000	         -0.00001887	          9.40371625	        902.57849985	        -53.41583052	          0.18016382	          0.00000000	          0.13677639	          0.00000000	          0.00006983	          0.00000000	          0.00000000	         10.06779884	          0.00000000	
          3.53000000	         -0.00447790	         -0.01103077	          0.00038972	         -0.00004700	          0.00000000	         -0.00001215	         11.28795488	        905.62967182	        -54.06895662	          0.18089398	          0.00000000	          0.13694601	          0.00000000	          0.00004978	          0.00000000	          0.00000000	          9.78290538	          0.00000000	
          3.53500000	         -0.00501171	         -0.01364615	          0.00009393	         -0.00002482	          0.00000000	         -0.00000688	         13.20893299	        908.82190631	        -54.81889584	          0.18164162	          0.00000000	          0.13712602	          0.00000000	          0.00003298	          0.00000000	          0.00000000	          9.48855457	          0.00000000	
          3.54000000	         -0.00495766	         -0.01424410	         -0.00010318	         -0.00000863	          0.00000000	         -0.00000296	         15.14243733	        912.10051223	        -55.62192914	          0.18241023	          0.00000000	          0.13731244	          0.00000000	          0.00001960	          0.00000000	          0.00000000	          9.18392620	          0.00000000	
          3.54500000	         -0.00453091	         -0.01350102	         -0.00022143	          0.00000243	          0.00000000	         -0.00000021	         17.06562386	        915.41764971	        -56.43454575	          0.18320189	          0.00000000	          0.13750181	          0.00000000	          0.00000947	          0.00000000	          0.00000000	          8.86830620	          0.00000000	
          3.55000000	         -0.00389890	         -0.01195672	         -0.00027974	          0.00000934	          0.00000000	          0.00000157	         18.95889159	        918.73842892	        -57.21735072	          0.18401899	          0.00000000	          0.13769221	          0.00000000	          0.00000222	          0.00000000	          0.00000000	          8.54114873	          0.00000000	
          3.55500000	         -0.00318525	         -0.01002077	         -0.00029501	          0.00001302	          0.00000000	          0.00000259	         20.80691588	        922.04131870	        -57.93848085	          0.18486461	          0.00000000	          0.13788299	          0.00000000	         -0.00000260	          0.00000000	          0.00000000	          8.20208436	          0.00000000	
          3.56000000	         -0.00247569	         -0.00798675	         -0.00028147	          0.00001436	          0.00000000	          0.00000303	         22.59881719	        925.31307061	        -58.57712397	          0.18574291	          0.00000000	          0.13807455	          0.00000000	         -0.00000549	          0.00000000	          0.00000000	          7.85130597	          0.00000000	
          3.56500000	         -0.00182486	         -0.00605073	         -0.00025053	          0.00001408	          0.00000000	          0.00000308	         24.32696269	        928.54332247	        -59.12563316	          0.18665881	          0.00000000	          0.13826887	          0.00000000	         -0.00000690	          0.00000000	          0.00000000	          7.48964641	          0.00000000	
          3.57000000	         -0.00126317	         -0.00433065	         -0.00021087	          0.00001279	          0.00000000	          0.00000287	         25.98614137	        931.72037768	        -59.58929434	          0.18761692	          0.00000000	          0.13846931	          0.00000000	         -0.00000727	          0.00000000	          0.00000000	          7.11823072	          0.00000000	
          3.57500000	         -0.00080307	         -0.00288509	         -0.00016877	          0.00001095	          0.00000000	          0.00000250	         27.57371587	        934.83139542	        -59.98401237	          0.18862295	          0.00000000	          0.13868041	          0.00000000	         -0.00000692	          0.00000000	          0.00000000	          6.73816901	          0.00000000	
          3.58000000	         -0.00044451	         -0.00172991	         -0.00012841	          0.00000890	          0.00000000	          0.00000207	         29.08978222	        937.86145185	        -60.33322964	          0.18968446	          0.00000000	          0.13890739	          0.00000000	         -0.00000616	          0.00000000	          0.00000000	          6.35032415	          0.00000000	
